<?xml version="1.0" encoding="UTF-8" standalone="no"?>
<!-- Created with Inkscape (http://www.inkscape.org/) -->

<svg
   xmlns:dc="http://purl.org/dc/elements/1.1/"
   xmlns:cc="http://creativecommons.org/ns#"
   xmlns:rdf="http://www.w3.org/1999/02/22-rdf-syntax-ns#"
   xmlns:svg="http://www.w3.org/2000/svg"
   xmlns="http://www.w3.org/2000/svg"
   xmlns:sodipodi="http://sodipodi.sourceforge.net/DTD/sodipodi-0.dtd"
   xmlns:inkscape="http://www.inkscape.org/namespaces/inkscape"
   width="312.46625"
   height="69.23999"
   viewBox="0 0 312.46623 69.239988"
   id="svg2"
   version="1.1"
   inkscape:version="0.91 r13725"
   sodipodi:docname="autofont.svg">
  <defs
     id="defs4" />
  <sodipodi:namedview
     id="base"
     pagecolor="#ffffff"
     bordercolor="#666666"
     borderopacity="1.0"
     inkscape:pageopacity="0.0"
     inkscape:pageshadow="2"
     inkscape:zoom="1"
     inkscape:cx="157.87761"
     inkscape:cy="60.032938"
     inkscape:document-units="px"
     inkscape:current-layer="g4327"
     showgrid="false"
     units="px"
     inkscape:window-width="2522"
     inkscape:window-height="1382"
     inkscape:window-x="2576"
     inkscape:window-y="36"
     inkscape:window-maximized="0"
     fit-margin-top="0"
     fit-margin-left="0"
     fit-margin-right="0"
     fit-margin-bottom="0" />
  <metadata
     id="metadata7">
    <rdf:RDF>
      <cc:Work
         rdf:about="">
        <dc:format>image/svg+xml</dc:format>
        <dc:type
           rdf:resource="http://purl.org/dc/dcmitype/StillImage" />
        <dc:title></dc:title>
      </cc:Work>
    </rdf:RDF>
  </metadata>
  <g
     inkscape:label="Text"
     inkscape:groupmode="layer"
     id="layer1"
     transform="translate(-18.766875,-971.74221)"
     style="display:none">
    <text
       xml:space="preserve"
       style="font-style:italic;font-variant:normal;font-weight:bold;font-stretch:normal;font-size:40px;line-height:125%;font-family:'Noto Sans';-inkscape-font-specification:'Noto Sans, Bold Italic';text-align:start;letter-spacing:0px;word-spacing:0px;writing-mode:lr-tb;text-anchor:start;fill:#000000;fill-opacity:1;stroke:none;stroke-width:1px;stroke-linecap:butt;stroke-linejoin:miter;stroke-opacity:1"
       x="22.48686"
       y="1031.1422"
       id="text4136"
       sodipodi:linespacing="125%"><tspan
         sodipodi:role="line"
         id="tspan4138"
         x="22.48686"
         y="1031.1422"
         style="font-style:italic;font-variant:normal;font-weight:900;font-stretch:normal;font-size:80px;line-height:125%;font-family:Lato;-inkscape-font-specification:'Lato, Heavy Italic';text-align:start;writing-mode:lr-tb;text-anchor:start">Autofont</tspan></text>
  </g>
  <g
     transform="translate(-18.766875,-971.74221)"
     id="g4327"
     inkscape:groupmode="layer"
     inkscape:label="Path"
     style="display:inline">
    <g
       style="font-style:italic;font-variant:normal;font-weight:bold;font-stretch:normal;font-size:40px;line-height:125%;font-family:'Noto Sans';-inkscape-font-specification:'Noto Sans, Bold Italic';text-align:start;letter-spacing:0px;word-spacing:0px;writing-mode:lr-tb;text-anchor:start;fill:#000000;fill-opacity:1;stroke:none;stroke-width:1px;stroke-linecap:butt;stroke-linejoin:miter;stroke-opacity:1"
       id="text4329">
      <path
         d="m 56.16686,1008.9422 -2.84,-16.63999 q -0.32,-1.56 -0.72,-3.68 -0.36,-2.16 -0.72,-4.64 -0.96,2.52 -1.92,4.68 -0.92,2.12 -1.6,3.72 l -6.84,16.55999 14.64,0 z m 17.32,22.2 -10.08,0 q -1.68,0 -2.64,-0.76 -0.92,-0.8 -1.28,-2.08 l -1.8,-10.48 -19.8,0 -4.32,10.48 q -0.56,1.08 -1.8,1.96 -1.2,0.88 -2.76,0.88 l -10.24,0 27.84,-58.27999 13.36,0 13.52,58.27999 z"
         style="font-style:italic;font-variant:normal;font-weight:900;font-stretch:normal;font-size:80px;line-height:125%;font-family:Lato;-inkscape-font-specification:'Lato, Heavy Italic';text-align:start;writing-mode:lr-tb;text-anchor:start"
         id="path4334"
         inkscape:connector-curvature="0" />
      <path
         d="m 117.03061,989.66221 -5.04,41.47999 -6.32,0 q -4.4,0 -4.4,-4.08 l 0,-2.64 q -3,3.76 -6.44,5.56 -3.44,1.8 -7.16,1.8 -2.6,0 -4.72,-1.04 -2.12,-1.04 -3.56,-3.04 -1.4,-2.04 -2,-4.96 -0.6,-2.96 -0.12,-6.76 l 3.12,-26.31999 12.4,0 -3.12,26.31999 q -0.2,1.68 -0.16,2.84 0.08,1.16 0.44,1.88 0.36,0.68 0.96,1 0.64,0.28 1.56,0.28 1.28,0 2.64,-0.72 1.36,-0.76 2.64,-2.08 1.28,-1.36 2.36,-3.28 1.12,-1.92 1.84,-4.28 l 2.68,-21.95999 12.4,0 z"
         style="font-style:italic;font-variant:normal;font-weight:900;font-stretch:normal;font-size:80px;line-height:125%;font-family:Lato;-inkscape-font-specification:'Lato, Heavy Italic';text-align:start;writing-mode:lr-tb;text-anchor:start"
         id="path4336"
         inkscape:connector-curvature="0" />
      <path
         d="m 123.53311,1022.1822 q 0,-0.28 0,-0.68 0,-0.4 0.04,-1.12 0.08,-0.76 0.2,-1.96 0.16,-1.24 0.4,-3.24 l 2.12,-16.95999 -3.32,0 q -0.84,0 -1.4,-0.6 -0.56,-0.64 -0.36,-1.84 l 0.56,-4.84 6.28,-1.28 3.48,-10.12 q 0.68,-1.92 2.72,-1.92 l 6.72,0 -1.52,12.12 9.28,0 -1.04,8.48 -9.28,0 -2,16.27999 q -0.2,1.64 -0.32,2.6 -0.12,0.92 -0.2,1.44 -0.04,0.48 -0.04,0.68 0,0.16 0,0.2 0,1.16 0.52,1.96 0.56,0.76 1.72,0.76 0.64,0 1.04,-0.12 0.44,-0.16 0.76,-0.32 0.32,-0.2 0.6,-0.32 0.28,-0.16 0.64,-0.16 0.56,0 0.8,0.28 0.28,0.24 0.56,0.8 l 2.72,5.88 q -2.48,1.8 -5.32,2.72 -2.84,0.88 -5.72,0.88 -2.4,0 -4.32,-0.64 -1.92,-0.68 -3.32,-1.92 -1.36,-1.28 -2.16,-3.04 -0.76,-1.76 -0.84,-4 z"
         style="font-style:italic;font-variant:normal;font-weight:900;font-stretch:normal;font-size:80px;line-height:125%;font-family:Lato;-inkscape-font-specification:'Lato, Heavy Italic';text-align:start;writing-mode:lr-tb;text-anchor:start"
         id="path4338"
         inkscape:connector-curvature="0" />
      <path
         d="m 167.06811,1022.5822 q 2.08,0 3.72,-1.24 1.64,-1.28 2.76,-3.44 1.16,-2.2 1.76,-5.08 0.64,-2.92 0.64,-6.2 0,-4.52 -1.24,-6.44 -1.2,-1.95999 -3.96,-1.95999 -2.08,0 -3.72,1.28 -1.64,1.23999 -2.8,3.39999 -1.12,2.16 -1.76,5.08 -0.6,2.92 -0.6,6.2 0,4.44 1.2,6.44 1.24,1.96 4,1.96 z m -1.12,9.2 q -3.48,0 -6.52,-1.16 -3,-1.16 -5.24,-3.36 -2.2,-2.24 -3.48,-5.48 -1.24,-3.28 -1.24,-7.52 0,-5.52 1.8,-10.12 1.84,-4.63999 4.92,-7.99999 3.08,-3.36 7.12,-5.24 4.08,-1.88 8.56,-1.88 3.48,0 6.48,1.16 3,1.16 5.2,3.4 2.24,2.2 3.52,5.48 1.28,3.23999 1.28,7.47999 0,5.44 -1.84,10.08 -1.8,4.6 -4.88,8 -3.08,3.36 -7.16,5.28 -4.04,1.88 -8.52,1.88 z"
         style="font-style:italic;font-variant:normal;font-weight:900;font-stretch:normal;font-size:80px;line-height:125%;font-family:Lato;-inkscape-font-specification:'Lato, Heavy Italic';text-align:start;writing-mode:lr-tb;text-anchor:start"
         id="path4340"
         inkscape:connector-curvature="0" />
      <path
         d="m 209.20186,998.22221 -3.72,30.91999 -2.16,6.96 q -0.8,2.28 -2.24,3.56 -1.44,1.32 -4.16,1.32 l -5.04,0 5.16,-42.79999 -2.44,-0.56 q -1.16,-0.32 -1.88,-1 -0.72,-0.68 -0.52,-2 l 0.64,-4.88 5.24,0 0.28,-2.36 q 0.44,-3.56 1.96,-6.44 1.52,-2.88 3.88,-4.92 2.36,-2.04 5.44,-3.16 3.12,-1.12 6.72,-1.12 1.4,0 2.56,0.2 1.2,0.16 2.4,0.56 l -1.12,6.24 q -0.2,1.04 -1.12,1.36 -0.92,0.32 -1.84,0.32 -3.08,0 -4.92,1.64 -1.8,1.64 -2.28,5.72 l -0.24,1.96 8.4,0 -1.12,8.48 -7.88,0 z"
         style="font-style:italic;font-variant:normal;font-weight:900;font-stretch:normal;font-size:80px;line-height:125%;font-family:Lato;-inkscape-font-specification:'Lato, Heavy Italic';text-align:start;writing-mode:lr-tb;text-anchor:start"
         id="path4342"
         inkscape:connector-curvature="0" />
      <path
         d="m 234.56811,1022.5822 q 2.08,0 3.72,-1.24 1.64,-1.28 2.76,-3.44 1.16,-2.2 1.76,-5.08 0.64,-2.92 0.64,-6.2 0,-4.52 -1.24,-6.44 -1.2,-1.95999 -3.96,-1.95999 -2.08,0 -3.72,1.28 -1.64,1.23999 -2.8,3.39999 -1.12,2.16 -1.76,5.08 -0.6,2.92 -0.6,6.2 0,4.44 1.2,6.44 1.24,1.96 4,1.96 z m -1.12,9.2 q -3.48,0 -6.52,-1.16 -3,-1.16 -5.24,-3.36 -2.2,-2.24 -3.48,-5.48 -1.24,-3.28 -1.24,-7.52 0,-5.52 1.8,-10.12 1.84,-4.63999 4.92,-7.99999 3.08,-3.36 7.12,-5.24 4.08,-1.88 8.56,-1.88 3.48,0 6.48,1.16 3,1.16 5.2,3.4 2.24,2.2 3.52,5.48 1.28,3.23999 1.28,7.47999 0,5.44 -1.84,10.08 -1.8,4.6 -4.88,8 -3.08,3.36 -7.16,5.28 -4.04,1.88 -8.52,1.88 z"
         style="font-style:italic;font-variant:normal;font-weight:900;font-stretch:normal;font-size:80px;line-height:125%;font-family:Lato;-inkscape-font-specification:'Lato, Heavy Italic';text-align:start;writing-mode:lr-tb;text-anchor:start"
         id="path4344"
         inkscape:connector-curvature="0" />
      <path
         d="m 274.35561,996.82221 q 3,-4 6.56,-5.88 3.56,-1.92 7.36,-1.92 2.56,0 4.68,1.04 2.16,1.04 3.56,3.04 1.44,2 2.04,4.96 0.6,2.91999 0.12,6.71999 l -3.12,26.36 -12.4,0 3.12,-26.36 q 0.2,-1.68 0.12,-2.84 -0.04,-1.16 -0.4,-1.84 -0.36,-0.67999 -1,-0.95999 -0.64,-0.32 -1.52,-0.32 -1.36,0 -2.84,0.84 -1.48,0.83999 -2.84,2.39999 -1.32,1.52 -2.44,3.72 -1.12,2.16 -1.76,4.8 l -2.28,20.56 -12.4,0 4.96,-41.47999 6.4,0 q 1.92,0 3,0.92 1.08,0.88 1.08,2.92 l 0,3.32 z"
         style="font-style:italic;font-variant:normal;font-weight:900;font-stretch:normal;font-size:80px;line-height:125%;font-family:Lato;-inkscape-font-specification:'Lato, Heavy Italic';text-align:start;writing-mode:lr-tb;text-anchor:start"
         id="path4346"
         inkscape:connector-curvature="0" />
      <path
         d="m 306.03311,1022.1822 q 0,-0.28 0,-0.68 0,-0.4 0.04,-1.12 0.08,-0.76 0.2,-1.96 0.16,-1.24 0.4,-3.24 l 2.12,-16.95999 -3.32,0 q -0.84,0 -1.4,-0.6 -0.56,-0.64 -0.36,-1.84 l 0.56,-4.84 6.28,-1.28 3.48,-10.12 q 0.68,-1.92 2.72,-1.92 l 6.72,0 -1.52,12.12 9.28,0 -1.04,8.48 -9.28,0 -2,16.27999 q -0.2,1.64 -0.32,2.6 -0.12,0.92 -0.2,1.44 -0.04,0.48 -0.04,0.68 0,0.16 0,0.2 0,1.16 0.52,1.96 0.56,0.76 1.72,0.76 0.64,0 1.04,-0.12 0.44,-0.16 0.76,-0.32 0.32,-0.2 0.6,-0.32 0.28,-0.16 0.64,-0.16 0.56,0 0.8,0.28 0.28,0.24 0.56,0.8 l 2.72,5.88 q -2.48,1.8 -5.32,2.72 -2.84,0.88 -5.72,0.88 -2.4,0 -4.32,-0.64 -1.92,-0.68 -3.32,-1.92 -1.36,-1.28 -2.16,-3.04 -0.76,-1.76 -0.84,-4 z"
         style="font-style:italic;font-variant:normal;font-weight:900;font-stretch:normal;font-size:80px;line-height:125%;font-family:Lato;-inkscape-font-specification:'Lato, Heavy Italic';text-align:start;writing-mode:lr-tb;text-anchor:start"
         id="path4348"
         inkscape:connector-curvature="0" />
    </g>
  </g>
</svg>
